<svg id="Capa_1" enable-background="new 0 0 50 50" height="50" viewBox="0 0 512 512" width="50" xmlns="http://www.w3.org/2000/svg"><g><circle cx="256" cy="256" fill="#3d6dcc" r="256"/><path d="m512 256c0-140.61-115.404-256-256-256v512c140.596 0 256-115.39 256-256z" fill="#2e3e99"/><path d="m299.308 331h-43.308-43.325l-64.616-30-72.014 30c4.402 10.523 9.802 20.504 15.901 30 30.438 47.39 80.735 80.717 139.111 88.22l24.943-17.942 55.988-40.278z" fill="#e1a6ff"/><path d="m299.308 331h-43.308v100.278l55.988-40.278z" fill="#b58dff"/><path d="m389.925 255.965-47.309.02-43.308 75.015-43.308 75.016-24.943 43.204c8.187 1.053 16.474 1.78 24.943 1.78 59.246 0 117.237-27.775 154.807-76.906z" fill="#9ef"/><path d="m410.807 374.094-20.881-118.129-47.309.02-43.309 75.015-43.308 75.016v44.984c59.246 0 117.237-27.775 154.807-76.906z" fill="#5cc3e6"/><path d="m435.956 181-72.015-30-64.616 30 43.292 74.985 68.19 118.109c26.657-34.857 40.193-76.212 40.193-118.094 0-26.569-5.378-51.896-15.044-75z" fill="#b58dff"/><g><path d="m280.941 62.78-24.941 17.942-55.99 40.278 12.68 60h43.31 43.325 136.631c-25.807-61.683-83.835-109.07-155.015-118.22z" fill="#9ef"/><path d="m435.956 181c-25.807-61.683-83.835-109.07-155.015-118.22l-24.941 17.942v100.278h43.325z" fill="#5cc3e6"/></g><path d="m256 61c-59.244 0-117.237 27.773-154.807 76.904l20.881 118.13 47.309-.02 43.307-75.014 43.31-75.018 24.941-43.202c-8.187-1.053-16.472-1.78-24.941-1.78z" fill="#e1a6ff"/><path d="m256 61v44.982l24.941-43.202c-8.187-1.053-16.472-1.78-24.941-1.78z" fill="#b58dff"/><path d="m169.384 256.015-68.19-118.11c-26.549 34.707-40.194 76.047-40.194 118.095 0 26.569 5.38 51.896 15.046 75h136.63z" fill="#9ef"/><g><g><path d="m256 211c-24.901 0-45 20.099-45 45 0 24.899 20.099 45 45 45s45-20.101 45-45c0-24.901-20.099-45-45-45z" fill="#2e3e99"/></g></g><path d="m301 256c0 24.899-20.099 45-45 45v-90c24.901 0 45 20.099 45 45z" fill="#263480"/></g></svg>