<svg width="50" height="50" viewBox="0 0 50 50" fill="none" xmlns="http://www.w3.org/2000/svg">
<path d="M49.5868 20.9663C49.8188 19.7923 49.9636 18.505 50 17.0616C49.986 10.8722 46.2808 8.68213 45.5679 7.65542C46.6179 2.96582 45.394 0.832676 44.8247 0.102441C42.7253 -0.493448 37.5204 1.64043 34.6765 3.14258C30.0397 2.05726 20.2409 2.16319 16.5663 3.4235C9.78628 -0.458556 6.20032 0.133363 6.20032 0.133363C6.20032 0.133363 3.88202 3.45755 5.58746 8.32067C3.35669 10.5938 1.69397 12.2009 1.69397 16.4639C1.69397 17.4849 1.77327 18.4496 1.90783 19.3778C3.82897 27.4551 11.833 30.9398 19.6952 31.5407C18.5121 32.2595 17.0917 33.6199 16.8952 35.1963C15.4086 35.9648 12.4183 36.2189 10.0929 35.6343C6.83473 34.8111 5.58746 29.6518 0.708245 30.3878C-0.347502 30.5457 -0.137685 31.1026 0.776573 31.5773C2.26306 32.3482 3.66305 33.3066 4.74219 35.3575C5.571 36.932 7.3142 39.7433 12.8256 39.7433C15.0135 39.7433 16.546 39.5365 16.546 39.5365C16.546 39.5365 16.5877 43.5487 16.5877 45.1136C16.5877 46.9144 13.5483 47.42 13.5483 48.284C13.5483 48.6276 14.5543 48.6602 15.3627 48.6602C16.9604 48.6602 20.2846 47.5961 20.2846 45.7243C20.2846 44.237 20.3142 39.2388 20.3142 38.3634C20.3142 36.4509 21.596 35.842 21.596 35.842C21.596 35.842 21.7529 46.0514 21.2875 47.4201C20.7418 49.0298 19.7532 48.8011 19.7532 49.5174C19.7532 50.5865 23.7495 49.7788 25.0751 47.4388C26.1005 45.6112 25.6413 35.5993 25.6413 35.5993L26.7104 35.5807C26.7104 35.5807 26.7226 40.166 26.6858 42.2609C26.6473 44.4306 26.3673 47.1735 27.9789 48.4681C29.0368 49.3195 32.2775 50.8135 32.2775 49.4482C32.2775 48.6569 30.0081 48.0031 30.0081 45.8594V35.9842C31.3868 35.9842 31.6717 39.2302 31.6717 39.2302L32.1687 45.2609C32.1687 45.2609 31.8387 47.4615 35.1417 48.3799C36.3077 48.7065 38.8021 48.7953 38.919 48.2471C39.0362 47.6976 35.9155 46.885 35.8858 45.1818C35.8698 44.1444 35.944 43.5372 35.944 39.025C35.944 34.5153 35.1864 32.8471 32.5463 31.5176C40.2022 30.8893 48.1542 28.1553 49.5868 20.9663Z" fill="#B1B1B1"/>
</svg>
