<svg width="50" height="50" viewBox="0 0 50 50" fill="none" xmlns="http://www.w3.org/2000/svg">
<path d="M36.7188 8.88672H13.2812C10.8582 8.88672 8.88672 10.8582 8.88672 13.2812V36.7188C8.88672 39.1418 10.8582 41.1133 13.2812 41.1133H36.7188C39.1418 41.1133 41.1133 39.1418 41.1133 36.7188V13.2812C41.1133 10.8582 39.1418 8.88672 36.7188 8.88672ZM25 35.2539C19.3466 35.2539 14.7461 30.6534 14.7461 25C14.7461 19.3466 19.3466 14.7461 25 14.7461C30.6534 14.7461 35.2539 19.3466 35.2539 25C35.2539 30.6534 30.6534 35.2539 25 35.2539ZM35.2539 17.6758C33.6388 17.6758 32.3242 16.3612 32.3242 14.7461C32.3242 13.131 33.6388 11.8164 35.2539 11.8164C36.869 11.8164 38.1836 13.131 38.1836 14.7461C38.1836 16.3612 36.869 17.6758 35.2539 17.6758Z" fill="#B1B1B1"/>
<path d="M25 17.6758C20.9618 17.6758 17.6758 20.9618 17.6758 25C17.6758 29.0382 20.9618 32.3242 25 32.3242C29.0382 32.3242 32.3242 29.0382 32.3242 25C32.3242 20.9618 29.0382 17.6758 25 17.6758Z" fill="#B1B1B1"/>
<path d="M42.5781 0H7.42188C3.38364 0 0 3.38364 0 7.42188V42.5781C0 46.6164 3.38364 50 7.42188 50H42.5781C46.6164 50 50 46.6164 50 42.5781V7.42188C50 3.38364 46.6164 0 42.5781 0ZM44.043 36.7188C44.043 40.757 40.757 44.043 36.7188 44.043H13.2812C9.24301 44.043 5.95703 40.757 5.95703 36.7188V13.2812C5.95703 9.24301 9.24301 5.95703 13.2812 5.95703H36.7188C40.757 5.95703 44.043 9.24301 44.043 13.2812V36.7188Z" fill="#B1B1B1"/>
</svg>
