<svg width="545" height="720" viewBox="0 0 545 720" fill="none" xmlns="http://www.w3.org/2000/svg">
<g clip-path="url(#clip0)">
<path d="M107.4 465.7C106.5 465.4 104 469.1 99 476.6C96.7 480 95.6 481.7 94.4 483.7C90.3 490.5 87.9 496.3 86.8 499.1C86.4 500.2 84.6 504.9 82.9 511.2C82.1 514.3 81.1 518.3 80.4 523.6C79.8 529 79.8 533 79.8 533.9C79.9 537.3 80.2 539.9 80.4 541.5C80.8 545.1 81.4 547.7 81.9 550.2C82.1 551.1 82.8 554.7 83.7 557.8C84.4 560.3 85.9 565.1 89.8 572.8C96 585.1 103.5 595.3 106.6 599.3C116.4 612.3 121.5 618.9 129.9 621.8C132.9 622.8 135.3 623.2 140 623.8C146.8 624.8 154.8 625.9 163.7 624C167.4 623.2 177.4 621 185.3 612.7C187.7 610.2 196.2 601.3 194.7 589.7C194.3 586.5 191.5 581.8 185.8 572.6C184.3 570.1 181.4 565.5 178.9 565.9C178.3 566 177.5 566.4 177 566.9C176 568 176.2 569.2 176 570.6C175.7 572.2 174.7 573.2 172.8 575.2C172.2 575.8 169.8 578.2 165.1 580.1C162.7 581.1 159.3 582.2 154.1 582.5C142.4 583.3 132.6 579.8 131 579.2C127.1 577.8 117.5 574 109.8 564.8C107.2 561.7 102.9 556.4 101.5 548.4C99.9 539.5 102.8 530.8 103.7 530.9C103.9 530.9 104.1 531.5 104.4 532.5C105 534.6 104.9 536.2 104.9 536.6C104.9 539.6 109.8 542.3 111.6 543.3C113.2 544.2 120.1 548.1 128.3 545.7C134.8 543.8 137.9 539.2 138.7 538C141.2 534.2 142.7 528.3 140.8 527C140.2 526.6 139.5 526.8 138.9 526.8C136.8 527 134.7 525.8 127.4 518.6C123.3 514.6 121.2 512.5 120.9 511.3C120.4 509.3 120.5 506.5 118.5 505.4C117.9 505 117.4 505 117 504.9C113.2 504.2 109.6 498.6 107.9 493.9C107.4 492.5 106.5 489.6 106.3 483.6C106 472.5 108.7 466.1 107.4 465.7Z" fill="url(#paint0_linear)"/>
<path d="M135.6 449.4C135.8 451 134.5 452.1 133.2 453.8C130.9 456.7 129.7 460.2 127.3 467.3C126.2 470.5 125 474.2 124.2 479.3C123.5 484.2 123.6 487.6 123.7 490C123.9 495.9 124.9 497.9 125.4 498.8C126.5 500.7 127.8 503 130.1 503.5C131 503.7 132.3 503.5 133.2 504.5C133.7 505.1 133.8 505.7 133.8 505.8C133.9 506.3 133.8 507 133.1 508C132 509.5 130.6 510.3 129.5 510.8C124.8 513.3 125.5 513.3 124.2 513.7C119.6 515.3 115.1 513.7 114.5 513.5C109.1 511.4 106.8 506.5 105.2 503.2C103.7 500.1 103.3 497.1 102.4 491.1C101.3 483.8 100.8 479.8 102.5 475.3C103.1 473.8 104.1 471.7 103.8 471.5C103.5 471.3 101.8 473.7 101.2 474.4C96 481.6 93.2 489 93.2 489C89.1 499.8 87.3 509.8 87 511.8C85.2 522 83.8 529.5 84.4 539.7C85.2 553.1 88.9 563.1 91 568.7C92 571.3 96.2 582.1 105 594.4C112.2 604.5 119.3 611.2 122.3 613.9C134.6 624.9 145.9 630.4 148.4 631.5C153.4 633.9 160.2 637 169.7 638.5C179.1 640 185.8 639.1 190.3 638.5C199.8 637.2 202.9 634.8 204.3 633.4C204.7 633 208 629.4 208 629.4C208.9 629.4 211.1 629.4 212.4 630.9C213.3 631.9 213.4 633.1 213.5 634.9C213.7 640 213.8 642.6 213.1 645.6C212.4 648.4 211.9 650.6 210.2 652.9C208.6 655 207 655.8 207.3 656.6C207.8 657.9 213.6 657.1 214.3 657C225.4 655.3 233.6 648.9 234.5 648.2C237.3 645.9 246.5 638.6 249.9 626.2C253.9 611.8 247.5 600 252.1 597.5C253.8 596.6 255.8 597.5 259.4 599.3C272.7 606.2 279.4 609.6 284.7 616.2C287 619 295.6 630.3 296.1 646.7C296.7 665.7 286 678.8 281 684.9C269 699.6 254.4 705.3 247.9 707.7C230.4 714.2 215.6 713 201.6 711.7C190.1 710.7 162.9 707.9 133.6 689.7C123.9 683.7 99.2 667.9 83.3 637.5C73.3 618.4 69.9 599.6 68.2 590.5C67.7 587.9 65.6 575.7 64.9 559.3C64.5 550.7 64.2 545.6 64.9 538.4C65.5 532.3 66.5 527.1 66 527C65.6 526.9 64.1 531.6 63.1 535.6C61.7 541.3 61.1 546.3 60.7 553.2C60.4 559.1 60 566.9 60.7 577.4C61.1 583 61.6 589.8 63.5 598.5C65.8 609.2 68.9 617 71 622.2C77.5 638.1 80.7 646.1 87.2 651.6C89.9 653.9 95.2 657.7 94.4 659.7C94.3 659.9 93.9 660.7 91.5 660.8C80.4 661.3 69.1 651.4 69.1 651.4C53.7 637.9 46.4 619.7 44.1 613.6C37.2 595 36.7 579.4 36.4 566.6C36.2 557 35.9 540.3 41.5 519.6C44.4 509 48.3 501.1 55.8 485.1C62.5 470.9 66 465.8 67.3 463.9C69.3 461 71.7 458.1 75.1 452.6C76.9 449.8 78.8 447.1 80.5 444.3C81.5 442.6 83 441.2 83.9 439.4C84.2 438.7 84.7 437.7 85.7 437.3C86.8 436.8 87.9 437.3 88.3 437.4C90 438 93.1 437.9 99.2 437.8C102.4 437.7 104.7 437.2 108.8 436.3C114.3 435.1 117.1 434.5 119.5 433C123.2 430.8 125.5 427.7 126.5 428.3C126.8 428.5 126.8 429.1 126.8 429.6C126.8 429.6 126.8 431 127.8 437.2C128 438.3 128.4 440.8 129.9 443.2C132.5 446.8 135.4 447 135.6 449.4Z" fill="url(#paint1_linear)"/>
<path d="M287.401 308.609C286.001 312.109 286.901 314.909 287.401 319.309C287.701 321.909 287.601 326.009 287.301 334.209C287.101 339.409 286.801 346.109 285.301 354.409C284.001 361.609 282.301 367.009 281.601 369.109C279.801 374.609 276.201 385.309 267.801 396.809C262.901 403.509 252.601 417.409 241.701 420.809C241.201 420.909 240.101 421.309 240.001 421.809C239.801 424.409 263.501 428.309 281.601 430.109C305.001 432.309 313.801 430.409 316.501 429.709C327.601 427.009 338.901 421.509 338.501 420.109C338.401 419.809 337.701 419.709 336.401 419.409C334.401 419.009 332.801 419.009 332.501 419.009C330.001 419.109 326.701 418.509 324.501 417.609C320.501 416.009 317.801 412.509 318.101 412.109C318.201 411.909 318.901 412.309 320.001 412.809C322.401 413.809 324.301 414.209 327.301 414.709C334.501 416.009 342.401 417.409 350.601 414.309C355.801 412.409 361.001 408.609 360.501 407.109C360.301 406.409 359.001 406.409 357.801 406.309C349.301 405.309 342.601 397.609 342.801 397.209C342.901 397.009 344.301 398.009 346.501 398.909C356.601 403.509 366.801 401.509 368.201 401.209C376.401 399.509 383.901 394.609 383.401 393.109C383.301 392.709 382.601 392.609 381.101 392.409C378.001 391.909 374.901 390.809 371.801 390.109C364.201 388.409 358.101 381.309 358.401 380.909C358.501 380.709 359.901 381.709 362.301 382.809C370.301 386.609 378.001 386.509 381.901 386.409C387.301 386.209 391.501 386.109 396.201 383.609C401.401 380.809 406.001 375.609 405.101 374.109C404.801 373.509 403.701 373.709 402.301 373.809C402.301 373.809 397.101 374.209 389.401 372.409C382.601 370.809 377.801 366.209 378.001 365.909C378.101 365.709 380.401 366.809 381.601 367.409C393.601 372.609 411.601 365.609 416.101 363.809C416.101 363.809 421.001 361.909 438.801 349.309C439.401 348.909 440.801 347.909 440.601 347.509C440.401 346.909 437.701 347.609 437.001 347.809C430.501 349.409 420.101 348.809 414.101 347.809C404.301 346.209 396.601 341.809 396.701 341.609C396.701 341.509 398.601 342.009 399.601 342.309C410.201 345.309 422.201 344.209 426.401 343.809C434.101 343.109 442.501 342.309 452.101 337.909C469.001 330.209 480.401 315.609 479.401 314.409C479.201 314.109 478.201 314.509 477.601 314.809C471.301 317.409 464.901 317.409 453.801 317.209C438.201 317.009 425.501 313.009 425.501 312.709C425.501 312.609 426.801 312.709 427.701 312.809C434.501 313.509 449.301 313.609 464.701 310.309C473.001 308.509 480.901 306.909 490.201 301.609C490.201 301.609 503.801 293.909 510.301 281.409C510.901 280.309 512.501 277.109 511.801 276.509C511.201 276.009 509.201 277.509 508.401 278.109C504.501 280.909 500.601 282.009 492.801 284.109C488.101 285.409 484.101 285.609 476.001 286.109C469.501 286.509 461.001 286.509 460.901 286.009C460.901 285.609 465.801 284.909 468.401 284.509C482.001 282.309 491.901 276.409 503.301 269.609C504.601 268.809 517.901 260.709 530.401 248.309C533.101 245.609 537.201 241.209 539.201 234.509C540.701 229.409 540.901 223.309 539.801 223.009C539.401 222.909 539.101 223.609 538.001 224.709C536.701 226.009 535.601 226.609 533.601 227.909C526.001 232.509 519.301 234.909 519.301 234.909C504.301 240.109 485.701 243.109 485.701 243.109C460.101 247.209 480.901 244.609 449.001 249.509C406.701 256.009 404.201 255.409 384.701 259.209C366.701 262.709 356.001 264.809 341.701 270.209C340.001 270.909 319.301 278.909 305.701 290.009C299.601 295.009 300.101 296.409 292.501 302.509C290.601 304.309 288.601 305.809 287.401 308.609Z" fill="url(#paint2_linear)"/>
<path d="M290.7 359.7C290.8 359.7 290.8 360 290.1 362.3C289.2 365.5 288.7 367.3 287.6 370.4C286.9 372.3 285.7 375.7 283.7 380C282.6 382.3 280.4 387.1 276.8 392.6C274.3 396.4 269.2 404 260.2 411.2C255.1 415.3 250.8 417.5 245.8 420.3C239.9 423.5 235.5 425.8 229.4 427.2C225.9 428 224.1 428 215 428.2C210.8 428.3 197.7 428.6 188.1 429.2C178.2 429.8 173.2 430 168.5 430.9C157.5 433 149.4 434.5 143.5 440.9C138.3 446.6 136 454.9 134.2 454.4C133.6 454.2 133.7 453.3 132.5 451.4C131.3 449.6 130.4 449.1 129.3 448C127.2 445.8 126.7 443.1 126.1 440C125.7 438.1 125.2 435.4 126 432.2C126.4 430.6 127 429.1 126.6 428.9C126.3 428.7 125.4 429.8 124.3 430.9C122.7 432.4 121.3 433.2 118.5 434.8C118.5 434.8 114.7 437 110.1 438.5C92.3 444.2 78.1 439 78.1 439C71.4 436.5 66 432.4 66.2 432C66.3 431.8 68 432.7 70.4 433C71.8 433.2 75 433.3 80 430.6C87.3 426.6 92.4 419.6 93.6 418C103.1 404.9 100.9 404.2 109.9 392.7C112.1 389.8 116.8 384.1 115.5 382.5C115.3 382.3 115 382.2 113.9 382C110.9 381.5 109.4 381.3 108.3 381.3C104.9 381.3 95.7 377.8 86.9 372.5C80 368.3 75 365.2 71 359C70.5 358.2 67 353.5 67.8 352.8C68.3 352.3 70.2 353.5 71 354C80 359.4 94.9 356.4 102.7 352.3C103.2 352.1 106.9 350.1 106.6 349.5C106.5 349.1 104.9 349.4 103.5 349.6C100.9 349.9 98.5 349.6 93.8 349C77.1 346.7 63.1 338.2 63.1 338.2C56.2 334 47.4 328.7 42.3 318.6C40.9 315.9 38.4 310.1 39.1 309.7C39.4 309.5 40.3 310.7 41.7 311.9C44.1 314 46.6 314.8 51.7 316.1C59.8 318.1 63.6 318.7 63.6 318.7C74.9 320.5 80.6 321.4 87.2 321.4C94.4 321.4 101.9 320.5 101.9 319.9C101.9 319.5 98.2 319.2 96.4 319C86.3 318 78.6 314.5 69.1 310.2C53.9 303.3 42.3 294.5 35.8 288.5C29.4 282.6 28.8 280 22.8 273.3C22.4 272.9 21.3 271.7 21.6 271.3C21.9 270.9 24.2 272.2 24.7 272.4C30.2 275.3 42.7 276.9 48.1 277.5C60.4 279 75 279.6 75.2 278.5C75.3 278 72.4 277.4 70.7 276.9C59.6 274 43.3 266.7 31.3 253.9C24.8 246.9 21.4 240.4 18.4 234.6C16.6 231.1 15.2 227.8 14.6 223.6C14.5 222.7 13 215.8 14.5 215.3C15.1 215.1 15.9 216.1 16.9 217.1C17.9 218.1 20.5 219.8 25.6 223.2C29.5 225.8 33.3 227.6 40.4 230.9C45.6 233.3 52 236.3 60.7 239.5C65.3 241.2 73 243.8 73.2 243.3C73.3 242.9 68.7 240.8 66.8 239.9C53.6 233.5 44.1 224.9 37.9 219.2C23.7 206.2 15.8 193.7 14.1 191C6.50001 178.8 4.00001 170.1 3.00001 166.5C1.20001 159.9 -0.199992 151.1 0.800008 150.8C1.20001 150.7 1.80001 152.1 2.90001 153.9C5.40001 157.9 8.20001 160.3 11.3 163C17.2 168 22.9 170.2 28.8 172.6C31.4 173.6 35.9 175.2 41.7 176.4C44.9 177 50 177.8 50.1 177.3C50.2 176.9 47.4 175.8 46.8 175.6C36.4 171.6 24.1 156 21.6 152.8C15.2 144.7 8.70001 136.5 4.60001 123.8C1.70001 114.9 1.10001 107.2 0.800008 103.1C0.200008 95.2 0.500008 86 1.40001 86C1.80001 86 2.00001 87.9 2.90001 90.5C4.40001 95.2 6.60001 97.9 11.2 104.1C20.4 116.2 18.9 114.6 20.4 116.3C27.1 124 32.5 127.8 38 131.7C40.3 133.3 42.3 134.6 42.7 134.3C43.1 133.9 41.2 131.6 40.7 131.1C35.8 125.2 28.7 111.9 24 103.4C14.2 85.2 12.9 67 12.6 61.2C11.9 49.9 13.2 41.3 14.1 36.1C17 17.6 24.1 0.100014 25.9 0.500014C26.6 0.700014 26.3 3.40001 26.3 6.40001C26.1 17.4 29.1 25.4 33.9 37.9C41 56.7 51.5 71.7 57.1 79.2C60.9 84.3 62.9 86.4 90.4 114.5C110 134.5 119.9 144.6 124.2 148.8C146.3 170.3 157 180.1 157 180.1C168.4 190.6 170.6 192.2 174.6 197.2C178.2 201.7 187.8 213.8 192.2 231.5C195.1 243.1 193.4 247 194.2 276.6C194.4 285.4 195.5 294.2 195.4 303C195.4 303.6 195.4 305.3 196.4 307C197.3 308.6 198.7 309.5 199.5 309.9C201.4 311.1 203.1 311.3 204.2 311.5C206.2 311.8 207.8 311.6 209 311.4C210.6 311.2 211.5 311 212.4 310.4C213.9 309.4 214.6 307.7 214.7 307.8C214.8 307.9 214.5 308.6 214.3 309.3C214.3 309.3 213.9 310.4 213.4 313C213 314.8 213.2 316.3 213.6 320C214.3 326.6 214.3 326.4 214.3 326.6C215 331 217.2 334.1 220.8 339.1C231.6 354.3 232.3 355.3 233.2 356.7C236.9 362.8 236.3 363 239.6 367.9C243.5 373.6 245.1 374.4 246.8 378.7C247.4 380.4 249 384.4 248.8 389.4C248.7 391 248.4 395.3 248.4 395.3C248.4 395.3 252 396.1 254.5 396.2C257.7 396.4 260.2 395.7 262 395.1C263.2 394.7 268 393.2 273.2 388.5C277.1 385 279.1 381.6 282.4 376C287.5 367.2 290.3 359.5 290.7 359.7Z" fill="url(#paint3_linear)"/>
<path d="M365.149 246.108C363.591 247.898 360.505 246.18 354.727 246.245C348.741 246.309 344.602 248.284 336.945 251.838C333.737 253.318 328.769 255.888 323.275 260.055C319.336 262.932 311.974 268.987 305.311 278.647C301.461 284.124 295.838 292.49 293.805 304.478C293.482 306.676 293.357 310.376 293.105 317.874C292.692 335.072 293.508 336.677 292.732 345.473C292.07 352.669 291.518 358.666 288.583 366.248C285.649 373.63 282.008 378.508 277.742 384.383C272.645 391.152 270.044 394.637 264.974 397.006C262.697 398.092 259.598 398.674 253.4 399.836C249.784 400.514 247.202 400.899 246.487 399.795C246.078 399.092 246.6 398.195 246.705 397.896C248.377 394.306 246.353 387.794 244.833 383.184C243.819 380.178 241.988 375.767 229.189 359.389C222.943 351.352 221.916 350.645 218.848 346.027C214.451 339.4 211.588 335.083 210.386 328.975C208.683 320.565 210.789 313.478 211.103 312.779C211.104 312.679 211.416 312.281 211.313 312.181C211.211 312.08 210.795 312.578 210.794 312.678C209.963 313.673 207.582 314.958 206.34 315.551C204.375 316.339 199.724 317.611 195.712 315.487C193.346 314.272 191.091 311.759 191.614 310.662C191.823 310.263 192.236 310.166 192.34 310.066C197.199 308.495 201.704 297.222 201.704 297.222C225.189 269.964 235.37 258.525 236.302 257.93C236.405 257.931 237.026 257.635 236.925 257.334C236.927 256.934 235.896 256.828 235.484 256.726C232.701 256.209 232.196 254.406 227.672 251.678C227.364 251.476 226.644 251.072 226.748 250.873C226.853 250.673 227.987 250.88 228.399 250.883C232.11 251.505 236.446 251.231 236.447 250.931C236.449 250.731 235.109 250.423 234.8 250.421C230.472 249.395 224.616 245.06 221.451 239.541C217.98 233.319 218.026 225.72 219.37 225.328C220.093 225.132 221.116 226.638 221.628 227.341C227.465 234.777 248.289 238.002 265.245 232.405C271.552 230.343 283.244 225.013 285.313 224.126C286.762 223.434 289.452 222.251 293.175 220.873C296.794 219.595 300.517 218.217 305.474 217.447C308.47 216.965 312.911 216.292 318.581 217.126C318.581 217.126 324.251 217.96 329.497 220.692C329.497 220.692 332.377 222.21 334.323 224.621C334.937 225.425 335.038 225.826 335.038 225.826C335.14 226.126 335.138 226.326 335.241 226.427C335.652 226.629 336.481 226.034 336.689 225.836C338.14 224.744 341.13 225.262 342.882 225.573C344.634 225.884 348.755 226.909 355.54 231.15C359.138 233.371 360.988 234.582 362.524 236.592C364.571 239.304 366.916 244.018 365.149 246.108Z" fill="url(#paint4_linear)"/>
<path d="M317.8 228.6C317.8 228.8 315.6 227.9 313.3 229C312.2 229.5 311.7 230.1 310.9 230.8C308.5 233 305.6 233.6 304 234C302.1 234.4 302.1 234 295.7 234C292.8 234 290.1 234 290.1 233.9C290.1 233.8 292.4 234 295.4 233C297.3 232.4 298.6 231.6 300.2 230.7C303.4 228.8 303.7 228 305.2 227.2C310.4 224.4 317.8 228.3 317.8 228.6Z" fill="black"/>
</g>
<defs>
<linearGradient id="paint0_linear" x1="72.5" y1="477.5" x2="209" y2="666" gradientUnits="userSpaceOnUse">
<stop offset="0.09375" stop-color="#EA5627"/>
<stop offset="0.192708" stop-color="#F05B2C" stop-opacity="0.9"/>
<stop offset="0.287219" stop-color="#F56E21" stop-opacity="0.94"/>
<stop offset="0.384634" stop-color="#F36413"/>
<stop offset="0.447917" stop-color="#F36413"/>
<stop offset="0.536458" stop-color="#F36413" stop-opacity="0.92"/>
<stop offset="0.635106" stop-color="#F36413" stop-opacity="0.893697"/>
<stop offset="0.713542" stop-color="#F36413"/>
</linearGradient>
<linearGradient id="paint1_linear" x1="49.4999" y1="428" x2="296" y2="750.5" gradientUnits="userSpaceOnUse">
<stop stop-color="#F44040"/>
<stop offset="0.188371" stop-color="#E67711"/>
<stop offset="0.357172" stop-color="#F55800"/>
<stop offset="0.438506" stop-color="#F05600"/>
<stop offset="0.524697" stop-color="#EF7116"/>
<stop offset="0.611296" stop-color="#FB5A00"/>
<stop offset="0.716413" stop-color="#FE4C00"/>
<stop offset="0.903462" stop-color="#FF5C00"/>
</linearGradient>
<linearGradient id="paint2_linear" x1="526.101" y1="150.61" x2="231.601" y2="476.11" gradientUnits="userSpaceOnUse">
<stop offset="0.125" stop-color="#E93A22"/>
<stop offset="0.255208" stop-color="#F0361C"/>
<stop offset="0.411458" stop-color="#F01C1C" stop-opacity="0.9"/>
<stop offset="0.526042" stop-color="#D83A3A"/>
<stop offset="0.723958" stop-color="#E91D29" stop-opacity="0.87"/>
<stop offset="0.880208" stop-color="#CF1313" stop-opacity="0.85"/>
</linearGradient>
<linearGradient id="paint3_linear" x1="94" y1="28" x2="138.5" y2="491.5" gradientUnits="userSpaceOnUse">
<stop stop-color="#FF0404"/>
<stop offset="0.15625" stop-color="#FF0000"/>
<stop offset="0.354167" stop-color="#FF0C0C"/>
<stop offset="0.484375" stop-color="#F14831" stop-opacity="0.98"/>
<stop offset="0.588542" stop-color="#DF2006" stop-opacity="0.92"/>
<stop offset="0.807292" stop-color="#CD0D18" stop-opacity="0.9"/>
<stop offset="0.883407" stop-color="#EF1630"/>
</linearGradient>
<linearGradient id="paint4_linear" x1="279.024" y1="216.524" x2="234.879" y2="420.183" gradientUnits="userSpaceOnUse">
<stop stop-color="#EE8C31"/>
<stop offset="0.192708" stop-color="#FB9905"/>
<stop offset="0.4375" stop-color="#E5820A"/>
<stop offset="0.604167" stop-color="#E27309"/>
<stop offset="0.703125" stop-color="#DC5908"/>
<stop offset="0.869792" stop-color="#FA580A"/>
<stop offset="1" stop-color="#DC4A1B"/>
</linearGradient>
<clipPath id="clip0">
<rect width="545" height="720" fill="white"/>
</clipPath>
</defs>
</svg>
