<svg width="512" height="512" viewBox="0 0 512 512" fill="none" xmlns="http://www.w3.org/2000/svg">
<path d="M509.657 251.4L419.332 161.075C413.093 154.838 402.946 154.838 396.708 161.075L376.027 181.756C369.79 187.993 369.79 198.142 376.027 204.38L388.711 217.064H336.034V25.1013C336.034 11.8709 325.27 1.10598 312.039 1.10598C-12.2586 1.10598 6.65671 0.268139 3.39435 2.64567C2.5785 3.24056 1.89364 3.96442 1.34275 4.83525C-0.52389 7.78867 0.0999886 -23.0173 0.0999886 457.017C0.0999886 460.233 2.04361 463.105 4.89905 464.345C5.21099 464.481 212.84 511.039 216.087 511.039C224.756 511.039 232.056 503.998 232.056 495.038V465.016H312.04C325.271 465.016 336.035 454.251 336.035 441.021V297.049H388.712L376.027 309.731C369.79 315.968 369.79 326.118 376.027 332.355L396.709 353.037C402.947 359.274 413.093 359.274 419.333 353.037L509.658 262.712C512.781 259.588 512.781 254.524 509.657 251.4ZM216.058 495.037L16.0969 450.6V19.0755L216.058 63.5108V495.037ZM320.038 441.02C320.038 445.43 316.449 449.019 312.039 449.019H232.055V63.5108C232.055 55.9553 226.904 49.5345 219.528 47.8948L80.9632 17.1029H312.039C316.449 17.1029 320.038 20.6912 320.038 25.1013V217.064H280.045C271.225 217.064 264.048 224.24 264.048 233.061V281.051C264.048 289.872 271.225 297.048 280.045 297.048H320.038V441.02ZM408.02 341.724L387.338 321.043L413.676 294.705C418.696 289.685 415.141 281.05 408.02 281.05H280.045V233.06H408.02C415.143 233.06 418.695 224.424 413.676 219.405L387.338 193.067L408.02 172.387L492.691 257.056L408.02 341.724Z" fill="#D81B1B"/>
<path d="M168.067 233.06C154.837 233.06 144.072 243.825 144.072 257.056C144.072 270.286 154.837 281.051 168.067 281.051C181.298 281.051 192.063 270.286 192.063 257.056C192.063 243.825 181.299 233.06 168.067 233.06ZM168.067 265.054C163.657 265.054 160.069 261.466 160.069 257.056C160.069 252.646 163.657 249.057 168.067 249.057C172.477 249.057 176.066 252.646 176.066 257.056C176.066 261.466 172.477 265.054 168.067 265.054Z" fill="#D81B1B"/>
</svg>
