<svg width="70" height="50" viewBox="0 0 70 50" fill="none" xmlns="http://www.w3.org/2000/svg">
<path d="M58.0874 28.6714C56.9557 26.9214 57.2795 26.1429 58.0874 24.5786C58.102 24.5607 67.4444 8.75357 68.407 3.39286L68.4128 3.38929C68.8911 1.43571 68.4128 0 66.0998 0H58.4462C56.4978 0 55.5994 1.23214 55.1182 2.61071C55.1182 2.61071 51.2214 14.0321 45.7087 21.4357C43.9294 23.575 43.1069 24.2607 42.1356 24.2607C41.6573 24.2607 40.9135 23.575 40.9135 21.6214V3.38929C40.9135 1.04643 40.3681 0 38.7551 0H26.7205C25.4984 0 24.7721 1.09286 24.7721 2.11071C24.7721 4.33214 27.5285 4.84286 27.8143 11.0929V24.6536C27.8143 27.625 27.3739 28.1714 26.3967 28.1714C23.795 28.1714 17.4802 16.7036 13.738 3.57857C12.9825 1.03214 12.2446 0.00357117 10.2816 0.00357117H2.62509C0.440432 0.00357117 0 1.23571 0 2.61429C0 5.05 2.60176 17.1607 12.0988 33.1607C18.4281 44.0821 27.3418 50 35.4504 50C40.3243 50 40.9193 48.6857 40.9193 46.425C40.9193 35.9893 40.4789 35.0036 42.9202 35.0036C44.0519 35.0036 46.0003 35.6893 50.5505 40.9571C55.7511 47.2036 56.6057 50 59.5166 50H67.1702C69.352 50 70.4574 48.6857 69.8216 46.0929C68.3661 40.6393 58.5308 29.4214 58.0874 28.6714V28.6714Z" fill="#B1B1B1"/>
</svg>
