<svg width="50" height="50" viewBox="0 0 50 50" fill="none" xmlns="http://www.w3.org/2000/svg">
<path d="M9.00439 14.6484L11.5989 45.9702C11.785 48.229 13.709 50 15.9764 50H34.0237C36.2911 50 38.2151 48.229 38.4011 45.9702L40.9956 14.6484H9.00439ZM20.6055 42.6758C20.6055 43.4854 19.9503 44.1406 19.1406 44.1406C18.331 44.1406 17.6758 43.4854 17.6758 42.6758V19.043C17.6758 18.2333 18.331 17.5781 19.1406 17.5781C19.9503 17.5781 20.6055 18.2333 20.6055 19.043V42.6758ZM26.4648 42.6758C26.4648 43.4854 25.8097 44.1406 25 44.1406C24.1903 44.1406 23.5352 43.4854 23.5352 42.6758V19.043C23.5352 18.2333 24.1903 17.5781 25 17.5781C25.8097 17.5781 26.4648 18.2333 26.4648 19.043V42.6758ZM32.3242 42.6758C32.3242 43.4854 31.669 44.1406 30.8594 44.1406C30.0497 44.1406 29.3945 43.4854 29.3945 42.6758V19.043C29.3945 18.2333 30.0497 17.5781 30.8594 17.5781C31.669 17.5781 32.3242 18.2333 32.3242 19.043V42.6758Z" fill="#B1B1B1"/>
<path d="M39.6484 7.85938H32.3242V6.39453C32.3242 3.97129 30.3529 2 27.9297 2H22.0703C19.6471 2 17.6758 3.97129 17.6758 6.39453V7.85938H10.3516C7.92451 7.85938 5.95703 9.82686 5.95703 12.2539C5.95703 13.0629 6.61289 13.7188 7.42188 13.7188H42.5781C43.3871 13.7188 44.043 13.0629 44.043 12.2539C44.043 9.82686 42.0755 7.85938 39.6484 7.85938ZM29.3945 7.85938H20.6055V6.39453C20.6055 5.58633 21.2621 4.92969 22.0703 4.92969H27.9297C28.7379 4.92969 29.3945 5.58633 29.3945 6.39453V7.85938Z" fill="#B1B1B1"/>
</svg>
