<svg width="50" height="50" viewBox="0 0 50 50" fill="none" xmlns="http://www.w3.org/2000/svg">
<path d="M25 50C38.8071 50 50 38.8071 50 25C50 11.1929 38.8071 0 25 0C11.1929 0 0 11.1929 0 25C0 38.8071 11.1929 50 25 50Z" fill="#3D6DCC"/>
<path d="M29.2293 32.3242H25H20.769L14.4589 29.3945L7.42627 32.3242C7.85615 33.3519 8.3835 34.3266 8.9791 35.2539C11.9516 39.8818 16.8634 43.1364 22.5642 43.8691L25 42.117L30.4676 38.1836L29.2293 32.3242Z" fill="#E1A6FF"/>
<path d="M29.2293 32.3242H25V42.117L30.4676 38.1836L29.2293 32.3242Z" fill="#B58DFF"/>
<path d="M38.0786 24.9966L33.4586 24.9985L29.2293 32.3242L25 39.65L22.5641 43.8691C23.3637 43.972 24.1729 44.043 25 44.043C30.7857 44.043 36.4489 41.3306 40.1179 36.5326L38.0786 24.9966Z" fill="#99EEFF"/>
<path d="M42.5738 17.6758L35.5411 14.7461L29.231 17.6758L33.4587 24.9985L40.1179 36.5326C42.7211 33.1286 44.043 29.09 44.043 25C44.043 22.4054 43.5178 19.932 42.5738 17.6758V17.6758Z" fill="#B58DFF"/>
<path d="M27.4356 6.13086L25 7.88301L19.5322 11.8164L20.7705 17.6758H25H29.231H42.5738C40.0536 11.652 34.3868 7.02441 27.4356 6.13086V6.13086Z" fill="#99EEFF"/>
<path d="M25 5.95703C19.2145 5.95703 13.5511 8.66924 9.88214 13.4672L11.9213 25.0033L16.5413 25.0014L20.7705 17.6758L25 10.3498L27.4357 6.13086C26.6361 6.02803 25.8271 5.95703 25 5.95703V5.95703Z" fill="#E1A6FF"/>
<path d="M25 5.95703V10.3498L27.4356 6.13086C26.6361 6.02803 25.8271 5.95703 25 5.95703V5.95703Z" fill="#B58DFF"/>
<path d="M16.5414 25.0015L9.88223 13.4673C7.28955 16.8566 5.95703 20.8937 5.95703 25C5.95703 27.5946 6.48242 30.068 7.42637 32.3242H20.7691L16.5414 25.0015Z" fill="#99EEFF"/>
<path d="M25 20.6055C22.5683 20.6055 20.6055 22.5683 20.6055 25C20.6055 27.4315 22.5683 29.3945 25 29.3945C27.4317 29.3945 29.3945 27.4315 29.3945 25C29.3945 22.5683 27.4317 20.6055 25 20.6055Z" fill="#2E3E99"/>
<path d="M29.3945 25C29.3945 27.4315 27.4317 29.3945 25 29.3945V20.6055C27.4317 20.6055 29.3945 22.5683 29.3945 25Z" fill="#263480"/>
</svg>
