<svg width="50" height="51" viewBox="0 0 50 51" fill="none" xmlns="http://www.w3.org/2000/svg">
<path d="M49.7711 25.5118L40.9502 16.6577C40.341 16.0463 39.3501 16.0463 38.7408 16.6577L36.7212 18.6849C36.1121 19.2964 36.1121 20.2912 36.7212 20.9027L37.9599 22.146H32.8157V3.32894C32.8157 2.03204 31.7644 0.976813 30.4724 0.976813C-1.19726 0.976813 0.649931 0.894685 0.331341 1.12774C0.251669 1.18605 0.184788 1.25701 0.13099 1.34237C-0.0512987 1.63188 0.00962682 -1.38786 0.00962682 45.6672C0.00962682 45.9825 0.199433 46.264 0.478285 46.3856C0.508748 46.399 20.7851 50.9628 21.1021 50.9628C21.9487 50.9628 22.6615 50.2725 22.6615 49.3942V46.4514H30.4725C31.7645 46.4514 32.8158 45.3962 32.8158 44.0993V29.9865H37.96L36.7212 31.2296C36.1121 31.841 36.1121 32.8359 36.7212 33.4474L38.7409 35.4747C39.3502 36.0861 40.341 36.0861 40.9503 35.4747L49.7712 26.6206C50.0761 26.3143 50.0761 25.818 49.7711 25.5118ZM21.0992 49.3941L1.57182 45.0383V2.73826L21.0992 7.09401V49.3941ZM31.2535 44.0992C31.2535 44.5315 30.9031 44.8832 30.4724 44.8832H22.6614V7.09401C22.6614 6.35339 22.1584 5.724 21.4381 5.56327L7.90642 2.5449H30.4724C30.9031 2.5449 31.2535 2.89664 31.2535 3.32894V22.146H27.348C26.4867 22.146 25.7858 22.8495 25.7858 23.7141V28.4183C25.7858 29.2829 26.4867 29.9864 27.348 29.9864H31.2535V44.0992ZM39.8456 34.3658L37.8259 32.3384L40.3979 29.7567C40.8881 29.2646 40.5409 28.4182 39.8456 28.4182H27.348V23.714H39.8456C40.5411 23.714 40.888 22.8675 40.3979 22.3755L37.8259 19.7937L39.8456 17.7665L48.1142 26.0662L39.8456 34.3658Z" fill="#2E3E99"/>
<path d="M16.4127 23.714C15.1206 23.714 14.0694 24.7693 14.0694 26.0662C14.0694 27.3631 15.1206 28.4183 16.4127 28.4183C17.7047 28.4183 18.7559 27.3631 18.7559 26.0662C18.7559 24.7693 17.7048 23.714 16.4127 23.714ZM16.4127 26.8502C15.982 26.8502 15.6316 26.4985 15.6316 26.0662C15.6316 25.6339 15.982 25.2821 16.4127 25.2821C16.8433 25.2821 17.1938 25.6339 17.1938 26.0662C17.1938 26.4985 16.8433 26.8502 16.4127 26.8502Z" fill="#2E3E99"/>
</svg>
